# xmcd
# 
# Track frame offsets:
#     150
#     15751
#     32518
#     51004
#     64299
#     85552
#     101188
#     115560
#     134523
#     154167
#     176593
#     190619
#     211046
#     226689
#     238063
#     250924
# 
# Disc length: 3422
# 
# Revision: 3
# Processed by: cddbd v1.5.2PL0 Copyright (c) Steve Scherf et al.
# Submitted via: BonkEnc v1.0.8
# 
DISCID=bf0d5c10
DTITLE=Stacey Kent - The Boy Next Door
DYEAR=2003
DGENRE=Jazz
TTITLE0=The Best Is Yet To Come
TTITLE1=The Boy Next Door
TTITLE2=The Trolley Song
TTITLE3=Que Reste-T-Il De Nos Amours ?
TTITLE4=Say It Isn't So
TTITLE5=Too Darn Hot
TTITLE6=Makin' Whoopee
TTITLE7=What The World Needs Now Is Love
TTITLE8=You've Got a Friend
TTITLE9=I Got It Bad
TTITLE10=Ooh-Shoo-Be-Doo-Bee
TTITLE11='Tis Autumn
TTITLE12=All I Do Is Dream of You
TTITLE13=You're The Top
TTITLE14=Que Feras-Tu De Ta Vie ?
TTITLE15=Bookends
EXTD=YEAR: 2003
EXTT0=
EXTT1=
EXTT2=
EXTT3=
EXTT4=
EXTT5=
EXTT6=
EXTT7=
EXTT8=
EXTT9=
EXTT10=
EXTT11=
EXTT12=
EXTT13=
EXTT14=
EXTT15=
PLAYORDER=
